<svg width="34" height="33" viewBox="0 0 34 33" fill="none" xmlns="http://www.w3.org/2000/svg">
<path d="M32.0918 28.5479C33.1441 28.5479 34 29.3693 34 30.3792C34 31.3911 33.1441 32.2105 32.0918 32.2105H21.3061C20.2538 32.2105 19.3979 31.3911 19.3979 30.3792C19.3979 29.3693 20.2538 28.5479 21.3061 28.5479H32.0918ZM24.6119 1.25096L27.3981 3.34772C28.5406 4.19412 29.3023 5.30983 29.5628 6.48324C29.8635 7.774 29.5428 9.04168 28.6408 10.1382L12.0443 30.471C11.2826 31.3943 10.1602 31.9137 8.95752 31.9329L2.34297 32.0099C1.98217 32.0099 1.68151 31.7791 1.60134 31.452L0.0980304 25.2772C-0.162543 24.1422 0.0980304 22.9688 0.859706 22.0647L12.6256 7.63743C12.826 7.40659 13.1868 7.37004 13.4273 7.54124L18.3782 11.2731C18.6989 11.5232 19.1399 11.6578 19.6009 11.6001C20.5831 11.4847 21.2445 10.6383 21.1443 9.73419C21.0842 9.27252 20.8437 8.88779 20.523 8.59924C20.4227 8.5223 15.7124 4.94434 15.7124 4.94434C15.4117 4.7135 15.3516 4.2903 15.5921 4.00368L17.4562 1.71263C19.18 -0.384134 22.1866 -0.576498 24.6119 1.25096Z" fill="white"/>
</svg>
