<svg width="38" height="38" viewBox="0 0 38 38" fill="none" xmlns="http://www.w3.org/2000/svg">
<g clip-path="url(#clip0_11_60)">
<path d="M36.4166 19L32.5533 14.5825L33.0916 8.74L27.3758 7.44167L24.3833 2.375L19 4.68667L13.6166 2.375L10.6241 7.42583L4.90831 8.70833L5.44665 14.5667L1.58331 19L5.44665 23.4175L4.90831 29.2758L10.6241 30.5742L13.6166 35.625L19 33.2975L24.3833 35.6092L27.3758 30.5583L33.0916 29.26L32.5533 23.4175L36.4166 19ZM15.9758 26.4733L9.95915 20.4408L12.3025 18.0975L15.9758 21.7867L25.2383 12.4925L27.5816 14.8358L15.9758 26.4733Z" fill="white"/>
</g>
<defs>
<clipPath id="clip0_11_60">
<rect width="38" height="38" fill="white"/>
</clipPath>
</defs>
</svg>
